<?xml version="1.0" encoding="iso-8859-1"?>
<!-- Generator: Adobe Illustrator 21.0.0, SVG Export Plug-In . SVG Version: 6.00 Build 0)  -->
<svg xmlns="http://www.w3.org/2000/svg" xmlns:xlink="http://www.w3.org/1999/xlink" version="1.1" id="Capa_1" x="0px" y="0px" viewBox="0 0 512 512" style="enable-background:new 0 0 512 512;" xml:space="preserve" width="512" height="512">
<g>
	<circle style="fill:#00D7DF;" cx="256" cy="256" r="256"/>
	<path style="fill:#0091BF;" d="M270.969,511.553c120.126-6.929,218.029-96.675,237.491-213.009L361.458,151.542l-13.229-7.489   l-26.966-26.965l-44.591,17.751v8.613h-16.781l-22.799-22.969l-120.003,199.63l44.739,44.752V403L270.969,511.553z"/>
	<g>
		<path style="fill:#FFE470;" d="M368.547,327.203H134.84c-14.248,0-25.84-11.591-25.84-25.84V146.324    c0-14.248,11.591-25.84,25.84-25.84h102.252l18.949,22.969h86.666c14.248,0,25.84,11.591,25.84,25.84V327.203z"/>
		<path style="fill:#FFB64C;" d="M368.547,169.293c0-14.248-11.591-25.84-25.84-25.84h-86.666l-17.267-20.93v204.68h129.773V169.293    z"/>
		<path style="fill:#FFF5CC;" d="M403,403H161.828V195.707H403V403z"/>
		<rect x="282.414" y="195.707" style="fill:#FFDAAA;" width="120.586" height="207.293"/>
		<path style="fill:#3A3A41;" d="M296.195,247.387c-17.731,0-32.156-14.425-32.156-32.156v-36.75h17.227v36.75    c0,8.233,6.697,14.93,14.93,14.93s14.93-6.697,14.93-14.93V134.84c0-4.75-3.864-8.613-8.613-8.613s-8.613,3.864-8.613,8.613v8.613    h-17.227v-8.613c0-14.248,11.591-25.84,25.84-25.84s25.84,11.591,25.84,25.84v80.391    C328.352,232.962,313.927,247.387,296.195,247.387z"/>
		<path style="fill:#00DD7B;" d="M368.547,368.547H196.281v-41.905l60.408-40.725l31.858,27.948l7.719-4.612    c16.707-9.98,37.503-8.805,52.98,2.993l19.3,14.712V368.547z"/>
		<path style="fill:#00AB5E;" d="M296.268,309.253l-7.719,4.612l-6.134-5.381v60.063h86.133v-41.589l-19.3-14.712    C333.771,300.448,312.974,299.273,296.268,309.253z"/>
		<path style="fill:#FFA721;" d="M222.121,281.84c-14.248,0-25.84-11.591-25.84-25.84c0-14.248,11.591-25.84,25.84-25.84    s25.84,11.591,25.84,25.84C247.961,270.248,236.369,281.84,222.121,281.84z M222.121,247.387c-4.75,0-8.613,3.864-8.613,8.613    c0,4.75,3.864,8.613,8.613,8.613s8.613-3.864,8.613-8.613C230.734,251.25,226.871,247.387,222.121,247.387z"/>
	</g>
</g>















</svg>
